<svg width="56" height="41" viewBox="0 0 56 41" fill="none" xmlns="http://www.w3.org/2000/svg">
<mask id="mask0" style="mask-type:alpha" maskUnits="userSpaceOnUse" x="0" y="5" width="56" height="36">
<path fill-rule="evenodd" clip-rule="evenodd" d="M55.9025 5.85815H0.00157166V40.9544H55.9025V5.85815Z" fill="white"/>
</mask>
<g mask="url(#mask0)">
<path fill-rule="evenodd" clip-rule="evenodd" d="M55.9002 35.1657L55.9027 26.7539L52.1102 23.8574L48.8944 14.5745C47.9963 11.982 43.4435 10.5956 38.7765 11.4934C38.0313 11.637 37.3268 11.8309 36.6722 12.0651L31.7707 8.32103L31.8724 16.1619C31.8268 16.3329 31.7967 16.5047 31.7815 16.6769L19.9232 12.6397L15.1628 9.89107C13.428 8.88936 10.9552 8.51864 8.48399 8.74479L0.00617981 5.85815V14.2181C-0.061451 15.4227 0.624454 16.582 2.09895 17.4332L7.03338 20.282L4.40609 24.1732V32.548C4.4002 32.6504 4.40113 32.7518 4.40609 32.8523V32.8526C4.50753 34.8371 6.73122 36.5065 10.2113 36.9085L44.211 40.8344C45.6569 41.0289 47.2651 40.9932 48.8876 40.6812C50.3693 40.3961 51.6908 39.913 52.7766 39.3041C52.8219 39.2789 52.8656 39.2526 52.9103 39.2268C52.9547 39.2011 53.0003 39.1759 53.0437 39.1499C54.0985 38.5226 54.9354 37.7598 55.4293 36.9042C55.7293 36.3845 55.877 35.868 55.8956 35.3676L55.9002 35.3679V35.2178C55.8999 35.2004 55.9009 35.183 55.9002 35.1657Z" fill="#D8BA6F"/>
</g>
<path fill-rule="evenodd" clip-rule="evenodd" d="M52.91 30.5477C52.9544 30.5217 53 30.4965 53.0437 30.4705C54.0982 29.8432 54.9351 29.0807 55.429 28.2251C55.9697 27.2885 56.0315 26.36 55.6943 25.5252L48.8945 5.89513C47.9964 3.30258 43.4432 1.91619 38.7762 2.81429C34.1095 3.71239 31.0262 6.56863 31.9243 9.16148L32.6725 11.321L15.1625 1.21198C12.0513 -0.584527 6.56651 -0.357133 2.9738 1.71672C-0.618599 3.79119 -1.01228 6.95796 2.09865 8.75416L19.6087 18.8634L15.8677 18.4313C11.3772 17.9126 6.43001 19.6933 4.87455 22.3873C3.31908 25.0819 5.72021 27.7104 10.211 28.2291L44.2107 32.1553C45.657 32.3498 47.2648 32.3142 48.8873 32.0018C50.3693 31.717 51.6905 31.2336 52.7763 30.6247C52.8216 30.5995 52.8653 30.5732 52.91 30.5477Z" fill="#FDDB7A"/>
</svg>
