<svg width="1440" height="828" viewBox="0 0 1440 828" fill="none" xmlns="http://www.w3.org/2000/svg">
<rect width="1440" height="828" rx="1" fill="#6246E4"/>
<mask id="mask0" style="mask-type:alpha" maskUnits="userSpaceOnUse" x="0" y="0" width="1440" height="828">
<rect width="1440" height="828" rx="1" fill="white"/>
</mask>
<g mask="url(#mask0)">
<path fill-rule="evenodd" clip-rule="evenodd" d="M19.4994 2.96265C20.3284 2.96265 21 2.29102 21 1.46323C21 0.634271 20.3284 -0.0373535 19.4994 -0.0373535C18.6716 -0.0373535 18 0.634271 18 1.46323C18 2.29102 18.6716 2.96265 19.4994 2.96265Z" fill="#937BFF"/>
<path fill-rule="evenodd" clip-rule="evenodd" d="M41.5 2.96265C42.3275 2.96265 43 2.29102 43 1.46323C43 0.634271 42.3275 -0.0373535 41.5 -0.0373535C40.6714 -0.0373535 40 0.634271 40 1.46323C40 2.29102 40.6714 2.96265 41.5 2.96265Z" fill="#937BFF"/>
<path fill-rule="evenodd" clip-rule="evenodd" d="M62.5 2.96265C63.3286 2.96265 64 2.29102 64 1.46323C64 0.634271 63.3286 -0.0373535 62.5 -0.0373535C61.6725 -0.0373535 61 0.634271 61 1.46323C61 2.29102 61.6725 2.96265 62.5 2.96265Z" fill="#937BFF"/>
<path fill-rule="evenodd" clip-rule="evenodd" d="M85.5 2.96265C86.3286 2.96265 87 2.29102 87 1.46323C87 0.634271 86.3286 -0.0373535 85.5 -0.0373535C84.6714 -0.0373535 84 0.634271 84 1.46323C84 2.29102 84.6714 2.96265 85.5 2.96265Z" fill="#937BFF"/>
<path fill-rule="evenodd" clip-rule="evenodd" d="M106.5 2.96265C107.329 2.96265 108 2.29102 108 1.46323C108 0.634271 107.329 -0.0373535 106.5 -0.0373535C105.671 -0.0373535 105 0.634271 105 1.46323C105 2.29102 105.671 2.96265 106.5 2.96265Z" fill="#937BFF"/>
<path fill-rule="evenodd" clip-rule="evenodd" d="M8.5 23.9626C9.32864 23.9626 10 23.2922 10 22.4632C10 21.6343 9.32864 20.9626 8.5 20.9626C7.67254 20.9626 7 21.6343 7 22.4632C7 23.2922 7.67254 23.9626 8.5 23.9626Z" fill="#937BFF"/>
<path fill-rule="evenodd" clip-rule="evenodd" d="M29.5 23.9626C30.3286 23.9626 31 23.2922 31 22.4632C31 21.6343 30.3286 20.9626 29.5 20.9626C28.6714 20.9626 28 21.6343 28 22.4632C28 23.2922 28.6714 23.9626 29.5 23.9626Z" fill="#937BFF"/>
<path fill-rule="evenodd" clip-rule="evenodd" d="M51.5 23.9626C52.3286 23.9626 53 23.2922 53 22.4632C53 21.6343 52.3286 20.9626 51.5 20.9626C50.6714 20.9626 50 21.6343 50 22.4632C50 23.2922 50.6714 23.9626 51.5 23.9626Z" fill="#937BFF"/>
<path fill-rule="evenodd" clip-rule="evenodd" d="M73.4994 23.9626C74.3284 23.9626 75 23.2922 75 22.4632C75 21.6343 74.3284 20.9626 73.4994 20.9626C72.6716 20.9626 72 21.6343 72 22.4632C72 23.2922 72.6716 23.9626 73.4994 23.9626Z" fill="#937BFF"/>
<path fill-rule="evenodd" clip-rule="evenodd" d="M94.5 23.9626C95.3275 23.9626 96 23.2922 96 22.4632C96 21.6343 95.3275 20.9626 94.5 20.9626C93.6714 20.9626 93 21.6343 93 22.4632C93 23.2922 93.6714 23.9626 94.5 23.9626Z" fill="#937BFF"/>
<path fill-rule="evenodd" clip-rule="evenodd" d="M19.4994 46.9626C20.3284 46.9626 21 46.2922 21 45.4632C21 44.6343 20.3284 43.9626 19.4994 43.9626C18.6716 43.9626 18 44.6343 18 45.4632C18 46.2922 18.6716 46.9626 19.4994 46.9626Z" fill="#937BFF"/>
<path fill-rule="evenodd" clip-rule="evenodd" d="M41.5 46.9626C42.3275 46.9626 43 46.2922 43 45.4632C43 44.6343 42.3275 43.9626 41.5 43.9626C40.6714 43.9626 40 44.6343 40 45.4632C40 46.2922 40.6714 46.9626 41.5 46.9626Z" fill="#937BFF"/>
<path fill-rule="evenodd" clip-rule="evenodd" d="M62.5 46.9626C63.3286 46.9626 64 46.2922 64 45.4632C64 44.6343 63.3286 43.9626 62.5 43.9626C61.6725 43.9626 61 44.6343 61 45.4632C61 46.2922 61.6725 46.9626 62.5 46.9626Z" fill="#937BFF"/>
<path fill-rule="evenodd" clip-rule="evenodd" d="M85.5 46.9626C86.3286 46.9626 87 46.2922 87 45.4632C87 44.6343 86.3286 43.9626 85.5 43.9626C84.6714 43.9626 84 44.6343 84 45.4632C84 46.2922 84.6714 46.9626 85.5 46.9626Z" fill="#937BFF"/>
<path fill-rule="evenodd" clip-rule="evenodd" d="M106.5 46.9626C107.329 46.9626 108 46.2922 108 45.4632C108 44.6343 107.329 43.9626 106.5 43.9626C105.671 43.9626 105 44.6343 105 45.4632C105 46.2922 105.671 46.9626 106.5 46.9626Z" fill="#937BFF"/>
<path fill-rule="evenodd" clip-rule="evenodd" d="M8.5 67.9626C9.32864 67.9626 10 67.2901 10 66.4626C10 65.634 9.32864 64.9626 8.5 64.9626C7.67254 64.9626 7 65.634 7 66.4626C7 67.2901 7.67254 67.9626 8.5 67.9626Z" fill="#937BFF"/>
<path fill-rule="evenodd" clip-rule="evenodd" d="M29.5 67.9626C30.3286 67.9626 31 67.2901 31 66.4626C31 65.634 30.3286 64.9626 29.5 64.9626C28.6714 64.9626 28 65.634 28 66.4626C28 67.2901 28.6714 67.9626 29.5 67.9626Z" fill="#937BFF"/>
<path fill-rule="evenodd" clip-rule="evenodd" d="M51.5 67.9626C52.3286 67.9626 53 67.2901 53 66.4626C53 65.634 52.3286 64.9626 51.5 64.9626C50.6714 64.9626 50 65.634 50 66.4626C50 67.2901 50.6714 67.9626 51.5 67.9626Z" fill="#937BFF"/>
<path fill-rule="evenodd" clip-rule="evenodd" d="M73.4994 67.9626C74.3284 67.9626 75 67.2901 75 66.4626C75 65.634 74.3284 64.9626 73.4994 64.9626C72.6716 64.9626 72 65.634 72 66.4626C72 67.2901 72.6716 67.9626 73.4994 67.9626Z" fill="#937BFF"/>
<path fill-rule="evenodd" clip-rule="evenodd" d="M94.5 67.9626C95.3275 67.9626 96 67.2901 96 66.4626C96 65.634 95.3275 64.9626 94.5 64.9626C93.6714 64.9626 93 65.634 93 66.4626C93 67.2901 93.6714 67.9626 94.5 67.9626Z" fill="#937BFF"/>
<path fill-rule="evenodd" clip-rule="evenodd" d="M19.4994 88.9626C20.3284 88.9626 21 88.2901 21 87.4626C21 86.634 20.3284 85.9626 19.4994 85.9626C18.6716 85.9626 18 86.634 18 87.4626C18 88.2901 18.6716 88.9626 19.4994 88.9626Z" fill="#937BFF"/>
<path fill-rule="evenodd" clip-rule="evenodd" d="M41.5 88.9626C42.3275 88.9626 43 88.2901 43 87.4626C43 86.634 42.3275 85.9626 41.5 85.9626C40.6714 85.9626 40 86.634 40 87.4626C40 88.2901 40.6714 88.9626 41.5 88.9626Z" fill="#937BFF"/>
<path fill-rule="evenodd" clip-rule="evenodd" d="M62.5 88.9626C63.3286 88.9626 64 88.2901 64 87.4626C64 86.634 63.3286 85.9626 62.5 85.9626C61.6725 85.9626 61 86.634 61 87.4626C61 88.2901 61.6725 88.9626 62.5 88.9626Z" fill="#937BFF"/>
<path fill-rule="evenodd" clip-rule="evenodd" d="M85.5 88.9626C86.3286 88.9626 87 88.2901 87 87.4626C87 86.634 86.3286 85.9626 85.5 85.9626C84.6714 85.9626 84 86.634 84 87.4626C84 88.2901 84.6714 88.9626 85.5 88.9626Z" fill="#937BFF"/>
<path fill-rule="evenodd" clip-rule="evenodd" d="M106.5 88.9626C107.329 88.9626 108 88.2901 108 87.4626C108 86.634 107.329 85.9626 106.5 85.9626C105.671 85.9626 105 86.634 105 87.4626C105 88.2901 105.671 88.9626 106.5 88.9626Z" fill="#937BFF"/>
<path fill-rule="evenodd" clip-rule="evenodd" d="M8.5 111.963C9.32864 111.963 10 111.29 10 110.463C10 109.634 9.32864 108.963 8.5 108.963C7.67254 108.963 7 109.634 7 110.463C7 111.29 7.67254 111.963 8.5 111.963Z" fill="#937BFF"/>
<path fill-rule="evenodd" clip-rule="evenodd" d="M29.5 111.963C30.3286 111.963 31 111.29 31 110.463C31 109.634 30.3286 108.963 29.5 108.963C28.6714 108.963 28 109.634 28 110.463C28 111.29 28.6714 111.963 29.5 111.963Z" fill="#937BFF"/>
<path fill-rule="evenodd" clip-rule="evenodd" d="M51.5 111.963C52.3286 111.963 53 111.29 53 110.463C53 109.634 52.3286 108.963 51.5 108.963C50.6714 108.963 50 109.634 50 110.463C50 111.29 50.6714 111.963 51.5 111.963Z" fill="#937BFF"/>
<path fill-rule="evenodd" clip-rule="evenodd" d="M73.4994 111.963C74.3284 111.963 75 111.29 75 110.463C75 109.634 74.3284 108.963 73.4994 108.963C72.6716 108.963 72 109.634 72 110.463C72 111.29 72.6716 111.963 73.4994 111.963Z" fill="#937BFF"/>
<path fill-rule="evenodd" clip-rule="evenodd" d="M94.5 111.963C95.3275 111.963 96 111.29 96 110.463C96 109.634 95.3275 108.963 94.5 108.963C93.6714 108.963 93 109.634 93 110.463C93 111.29 93.6714 111.963 94.5 111.963Z" fill="#937BFF"/>
<path fill-rule="evenodd" clip-rule="evenodd" d="M19.4994 132.963C20.3284 132.963 21 132.292 21 131.463C21 130.634 20.3284 129.963 19.4994 129.963C18.6716 129.963 18 130.634 18 131.463C18 132.292 18.6716 132.963 19.4994 132.963Z" fill="#937BFF"/>
<path fill-rule="evenodd" clip-rule="evenodd" d="M41.5 132.963C42.3275 132.963 43 132.292 43 131.463C43 130.634 42.3275 129.963 41.5 129.963C40.6714 129.963 40 130.634 40 131.463C40 132.292 40.6714 132.963 41.5 132.963Z" fill="#937BFF"/>
<path fill-rule="evenodd" clip-rule="evenodd" d="M62.5 132.963C63.3286 132.963 64 132.292 64 131.463C64 130.634 63.3286 129.963 62.5 129.963C61.6725 129.963 61 130.634 61 131.463C61 132.292 61.6725 132.963 62.5 132.963Z" fill="#937BFF"/>
<path fill-rule="evenodd" clip-rule="evenodd" d="M85.5 132.963C86.3286 132.963 87 132.292 87 131.463C87 130.634 86.3286 129.963 85.5 129.963C84.6714 129.963 84 130.634 84 131.463C84 132.292 84.6714 132.963 85.5 132.963Z" fill="#937BFF"/>
<path fill-rule="evenodd" clip-rule="evenodd" d="M106.5 132.963C107.329 132.963 108 132.292 108 131.463C108 130.634 107.329 129.963 106.5 129.963C105.671 129.963 105 130.634 105 131.463C105 132.292 105.671 132.963 106.5 132.963Z" fill="#937BFF"/>
<path fill-rule="evenodd" clip-rule="evenodd" d="M8.5 154.963C9.32864 154.963 10 154.292 10 153.463C10 152.634 9.32864 151.963 8.5 151.963C7.67254 151.963 7 152.634 7 153.463C7 154.292 7.67254 154.963 8.5 154.963Z" fill="#937BFF"/>
<path fill-rule="evenodd" clip-rule="evenodd" d="M29.5 154.963C30.3286 154.963 31 154.292 31 153.463C31 152.634 30.3286 151.963 29.5 151.963C28.6714 151.963 28 152.634 28 153.463C28 154.292 28.6714 154.963 29.5 154.963Z" fill="#937BFF"/>
<path fill-rule="evenodd" clip-rule="evenodd" d="M51.5 154.963C52.3286 154.963 53 154.292 53 153.463C53 152.634 52.3286 151.963 51.5 151.963C50.6714 151.963 50 152.634 50 153.463C50 154.292 50.6714 154.963 51.5 154.963Z" fill="#937BFF"/>
<path fill-rule="evenodd" clip-rule="evenodd" d="M73.4994 154.963C74.3284 154.963 75 154.292 75 153.463C75 152.634 74.3284 151.963 73.4994 151.963C72.6716 151.963 72 152.634 72 153.463C72 154.292 72.6716 154.963 73.4994 154.963Z" fill="#937BFF"/>
<path fill-rule="evenodd" clip-rule="evenodd" d="M94.5 154.963C95.3275 154.963 96 154.292 96 153.463C96 152.634 95.3275 151.963 94.5 151.963C93.6714 151.963 93 152.634 93 153.463C93 154.292 93.6714 154.963 94.5 154.963Z" fill="#937BFF"/>
<path fill-rule="evenodd" clip-rule="evenodd" d="M19.4994 176.963C20.3284 176.963 21 176.29 21 175.463C21 174.634 20.3284 173.963 19.4994 173.963C18.6716 173.963 18 174.634 18 175.463C18 176.29 18.6716 176.963 19.4994 176.963Z" fill="#937BFF"/>
<path fill-rule="evenodd" clip-rule="evenodd" d="M41.5 176.963C42.3275 176.963 43 176.29 43 175.463C43 174.634 42.3275 173.963 41.5 173.963C40.6714 173.963 40 174.634 40 175.463C40 176.29 40.6714 176.963 41.5 176.963Z" fill="#937BFF"/>
<path fill-rule="evenodd" clip-rule="evenodd" d="M62.5 176.963C63.3286 176.963 64 176.29 64 175.463C64 174.634 63.3286 173.963 62.5 173.963C61.6725 173.963 61 174.634 61 175.463C61 176.29 61.6725 176.963 62.5 176.963Z" fill="#937BFF"/>
<path fill-rule="evenodd" clip-rule="evenodd" d="M85.5 176.963C86.3286 176.963 87 176.29 87 175.463C87 174.634 86.3286 173.963 85.5 173.963C84.6714 173.963 84 174.634 84 175.463C84 176.29 84.6714 176.963 85.5 176.963Z" fill="#937BFF"/>
<path fill-rule="evenodd" clip-rule="evenodd" d="M106.5 176.963C107.329 176.963 108 176.29 108 175.463C108 174.634 107.329 173.963 106.5 173.963C105.671 173.963 105 174.634 105 175.463C105 176.29 105.671 176.963 106.5 176.963Z" fill="#937BFF"/>
<path fill-rule="evenodd" clip-rule="evenodd" d="M8.5 198.963C9.32864 198.963 10 198.29 10 197.463C10 196.634 9.32864 195.963 8.5 195.963C7.67254 195.963 7 196.634 7 197.463C7 198.29 7.67254 198.963 8.5 198.963Z" fill="#937BFF"/>
<path fill-rule="evenodd" clip-rule="evenodd" d="M29.5 198.963C30.3286 198.963 31 198.29 31 197.463C31 196.634 30.3286 195.963 29.5 195.963C28.6714 195.963 28 196.634 28 197.463C28 198.29 28.6714 198.963 29.5 198.963Z" fill="#937BFF"/>
<path fill-rule="evenodd" clip-rule="evenodd" d="M51.5 198.963C52.3286 198.963 53 198.29 53 197.463C53 196.634 52.3286 195.963 51.5 195.963C50.6714 195.963 50 196.634 50 197.463C50 198.29 50.6714 198.963 51.5 198.963Z" fill="#937BFF"/>
<path fill-rule="evenodd" clip-rule="evenodd" d="M73.4994 198.963C74.3284 198.963 75 198.29 75 197.463C75 196.634 74.3284 195.963 73.4994 195.963C72.6716 195.963 72 196.634 72 197.463C72 198.29 72.6716 198.963 73.4994 198.963Z" fill="#937BFF"/>
<path fill-rule="evenodd" clip-rule="evenodd" d="M94.5 198.963C95.3275 198.963 96 198.29 96 197.463C96 196.634 95.3275 195.963 94.5 195.963C93.6714 195.963 93 196.634 93 197.463C93 198.29 93.6714 198.963 94.5 198.963Z" fill="#937BFF"/>
<path fill-rule="evenodd" clip-rule="evenodd" d="M19.4994 219.963C20.3284 219.963 21 219.29 21 218.463C21 217.634 20.3284 216.963 19.4994 216.963C18.6716 216.963 18 217.634 18 218.463C18 219.29 18.6716 219.963 19.4994 219.963Z" fill="#937BFF"/>
<path fill-rule="evenodd" clip-rule="evenodd" d="M41.5 219.963C42.3275 219.963 43 219.29 43 218.463C43 217.634 42.3275 216.963 41.5 216.963C40.6714 216.963 40 217.634 40 218.463C40 219.29 40.6714 219.963 41.5 219.963Z" fill="#937BFF"/>
<path fill-rule="evenodd" clip-rule="evenodd" d="M62.5 219.963C63.3286 219.963 64 219.29 64 218.463C64 217.634 63.3286 216.963 62.5 216.963C61.6725 216.963 61 217.634 61 218.463C61 219.29 61.6725 219.963 62.5 219.963Z" fill="#937BFF"/>
<path fill-rule="evenodd" clip-rule="evenodd" d="M85.5 219.963C86.3286 219.963 87 219.29 87 218.463C87 217.634 86.3286 216.963 85.5 216.963C84.6714 216.963 84 217.634 84 218.463C84 219.29 84.6714 219.963 85.5 219.963Z" fill="#937BFF"/>
<path fill-rule="evenodd" clip-rule="evenodd" d="M106.5 219.963C107.329 219.963 108 219.29 108 218.463C108 217.634 107.329 216.963 106.5 216.963C105.671 216.963 105 217.634 105 218.463C105 219.29 105.671 219.963 106.5 219.963Z" fill="#937BFF"/>
<path fill-rule="evenodd" clip-rule="evenodd" d="M8.5 242.963C9.32864 242.963 10 242.292 10 241.463C10 240.634 9.32864 239.963 8.5 239.963C7.67254 239.963 7 240.634 7 241.463C7 242.292 7.67254 242.963 8.5 242.963Z" fill="#937BFF"/>
<path fill-rule="evenodd" clip-rule="evenodd" d="M29.5 242.963C30.3286 242.963 31 242.292 31 241.463C31 240.634 30.3286 239.963 29.5 239.963C28.6714 239.963 28 240.634 28 241.463C28 242.292 28.6714 242.963 29.5 242.963Z" fill="#937BFF"/>
<path fill-rule="evenodd" clip-rule="evenodd" d="M51.5 242.963C52.3286 242.963 53 242.292 53 241.463C53 240.634 52.3286 239.963 51.5 239.963C50.6714 239.963 50 240.634 50 241.463C50 242.292 50.6714 242.963 51.5 242.963Z" fill="#937BFF"/>
<path fill-rule="evenodd" clip-rule="evenodd" d="M73.4994 242.963C74.3284 242.963 75 242.292 75 241.463C75 240.634 74.3284 239.963 73.4994 239.963C72.6716 239.963 72 240.634 72 241.463C72 242.292 72.6716 242.963 73.4994 242.963Z" fill="#937BFF"/>
<path fill-rule="evenodd" clip-rule="evenodd" d="M94.5 242.963C95.3275 242.963 96 242.292 96 241.463C96 240.634 95.3275 239.963 94.5 239.963C93.6714 239.963 93 240.634 93 241.463C93 242.292 93.6714 242.963 94.5 242.963Z" fill="#937BFF"/>
<path fill-rule="evenodd" clip-rule="evenodd" d="M19.4994 263.963C20.3284 263.963 21 263.292 21 262.463C21 261.634 20.3284 260.963 19.4994 260.963C18.6716 260.963 18 261.634 18 262.463C18 263.292 18.6716 263.963 19.4994 263.963Z" fill="#937BFF"/>
<path fill-rule="evenodd" clip-rule="evenodd" d="M41.5 263.963C42.3275 263.963 43 263.292 43 262.463C43 261.634 42.3275 260.963 41.5 260.963C40.6714 260.963 40 261.634 40 262.463C40 263.292 40.6714 263.963 41.5 263.963Z" fill="#937BFF"/>
<path fill-rule="evenodd" clip-rule="evenodd" d="M62.5 263.963C63.3286 263.963 64 263.292 64 262.463C64 261.634 63.3286 260.963 62.5 260.963C61.6725 260.963 61 261.634 61 262.463C61 263.292 61.6725 263.963 62.5 263.963Z" fill="#937BFF"/>
<path fill-rule="evenodd" clip-rule="evenodd" d="M85.5 263.963C86.3286 263.963 87 263.292 87 262.463C87 261.634 86.3286 260.963 85.5 260.963C84.6714 260.963 84 261.634 84 262.463C84 263.292 84.6714 263.963 85.5 263.963Z" fill="#937BFF"/>
<path fill-rule="evenodd" clip-rule="evenodd" d="M106.5 263.963C107.329 263.963 108 263.292 108 262.463C108 261.634 107.329 260.963 106.5 260.963C105.671 260.963 105 261.634 105 262.463C105 263.292 105.671 263.963 106.5 263.963Z" fill="#937BFF"/>
<path fill-rule="evenodd" clip-rule="evenodd" d="M8.5 280.963C9.32864 280.963 10 280.29 10 279.463C10 278.634 9.32864 277.963 8.5 277.963C7.67254 277.963 7 278.634 7 279.463C7 280.29 7.67254 280.963 8.5 280.963Z" fill="#937BFF"/>
<path fill-rule="evenodd" clip-rule="evenodd" d="M29.5 280.963C30.3286 280.963 31 280.29 31 279.463C31 278.634 30.3286 277.963 29.5 277.963C28.6714 277.963 28 278.634 28 279.463C28 280.29 28.6714 280.963 29.5 280.963Z" fill="#937BFF"/>
<path fill-rule="evenodd" clip-rule="evenodd" d="M51.5 280.963C52.3286 280.963 53 280.29 53 279.463C53 278.634 52.3286 277.963 51.5 277.963C50.6714 277.963 50 278.634 50 279.463C50 280.29 50.6714 280.963 51.5 280.963Z" fill="#937BFF"/>
<path fill-rule="evenodd" clip-rule="evenodd" d="M73.4994 280.963C74.3284 280.963 75 280.29 75 279.463C75 278.634 74.3284 277.963 73.4994 277.963C72.6716 277.963 72 278.634 72 279.463C72 280.29 72.6716 280.963 73.4994 280.963Z" fill="#937BFF"/>
<path fill-rule="evenodd" clip-rule="evenodd" d="M94.5 280.963C95.3275 280.963 96 280.29 96 279.463C96 278.634 95.3275 277.963 94.5 277.963C93.6714 277.963 93 278.634 93 279.463C93 280.29 93.6714 280.963 94.5 280.963Z" fill="#937BFF"/>
<path fill-rule="evenodd" clip-rule="evenodd" d="M19.4994 302.963C20.3284 302.963 21 302.292 21 301.463C21 300.634 20.3284 299.963 19.4994 299.963C18.6716 299.963 18 300.634 18 301.463C18 302.292 18.6716 302.963 19.4994 302.963Z" fill="#937BFF"/>
<path fill-rule="evenodd" clip-rule="evenodd" d="M41.5 302.963C42.3275 302.963 43 302.292 43 301.463C43 300.634 42.3275 299.963 41.5 299.963C40.6714 299.963 40 300.634 40 301.463C40 302.292 40.6714 302.963 41.5 302.963Z" fill="#937BFF"/>
<path fill-rule="evenodd" clip-rule="evenodd" d="M62.5 302.963C63.3286 302.963 64 302.292 64 301.463C64 300.634 63.3286 299.963 62.5 299.963C61.6725 299.963 61 300.634 61 301.463C61 302.292 61.6725 302.963 62.5 302.963Z" fill="#937BFF"/>
<path fill-rule="evenodd" clip-rule="evenodd" d="M85.5 302.963C86.3286 302.963 87 302.292 87 301.463C87 300.634 86.3286 299.963 85.5 299.963C84.6714 299.963 84 300.634 84 301.463C84 302.292 84.6714 302.963 85.5 302.963Z" fill="#937BFF"/>
<path fill-rule="evenodd" clip-rule="evenodd" d="M106.5 302.963C107.329 302.963 108 302.292 108 301.463C108 300.634 107.329 299.963 106.5 299.963C105.671 299.963 105 300.634 105 301.463C105 302.292 105.671 302.963 106.5 302.963Z" fill="#937BFF"/>
<path fill-rule="evenodd" clip-rule="evenodd" d="M8.5 324.963C9.32864 324.963 10 324.291 10 323.463C10 322.634 9.32864 321.963 8.5 321.963C7.67254 321.963 7 322.634 7 323.463C7 324.291 7.67254 324.963 8.5 324.963Z" fill="#937BFF"/>
<path fill-rule="evenodd" clip-rule="evenodd" d="M29.5 324.963C30.3286 324.963 31 324.291 31 323.463C31 322.634 30.3286 321.963 29.5 321.963C28.6714 321.963 28 322.634 28 323.463C28 324.291 28.6714 324.963 29.5 324.963Z" fill="#937BFF"/>
<path fill-rule="evenodd" clip-rule="evenodd" d="M51.5 324.963C52.3286 324.963 53 324.291 53 323.463C53 322.634 52.3286 321.963 51.5 321.963C50.6714 321.963 50 322.634 50 323.463C50 324.291 50.6714 324.963 51.5 324.963Z" fill="#937BFF"/>
<path fill-rule="evenodd" clip-rule="evenodd" d="M73.4994 324.963C74.3284 324.963 75 324.291 75 323.463C75 322.634 74.3284 321.963 73.4994 321.963C72.6716 321.963 72 322.634 72 323.463C72 324.291 72.6716 324.963 73.4994 324.963Z" fill="#937BFF"/>
<path fill-rule="evenodd" clip-rule="evenodd" d="M94.5 324.963C95.3275 324.963 96 324.291 96 323.463C96 322.634 95.3275 321.963 94.5 321.963C93.6714 321.963 93 322.634 93 323.463C93 324.291 93.6714 324.963 94.5 324.963Z" fill="#937BFF"/>
<path fill-rule="evenodd" clip-rule="evenodd" d="M19.4994 346.963C20.3284 346.963 21 346.29 21 345.463C21 344.634 20.3284 343.963 19.4994 343.963C18.6716 343.963 18 344.634 18 345.463C18 346.29 18.6716 346.963 19.4994 346.963Z" fill="#937BFF"/>
<path fill-rule="evenodd" clip-rule="evenodd" d="M41.5 346.963C42.3275 346.963 43 346.29 43 345.463C43 344.634 42.3275 343.963 41.5 343.963C40.6714 343.963 40 344.634 40 345.463C40 346.29 40.6714 346.963 41.5 346.963Z" fill="#937BFF"/>
<path fill-rule="evenodd" clip-rule="evenodd" d="M62.5 346.963C63.3286 346.963 64 346.29 64 345.463C64 344.634 63.3286 343.963 62.5 343.963C61.6725 343.963 61 344.634 61 345.463C61 346.29 61.6725 346.963 62.5 346.963Z" fill="#937BFF"/>
<path fill-rule="evenodd" clip-rule="evenodd" d="M85.5 346.963C86.3286 346.963 87 346.29 87 345.463C87 344.634 86.3286 343.963 85.5 343.963C84.6714 343.963 84 344.634 84 345.463C84 346.29 84.6714 346.963 85.5 346.963Z" fill="#937BFF"/>
<path fill-rule="evenodd" clip-rule="evenodd" d="M106.5 346.963C107.329 346.963 108 346.29 108 345.463C108 344.634 107.329 343.963 106.5 343.963C105.671 343.963 105 344.634 105 345.463C105 346.29 105.671 346.963 106.5 346.963Z" fill="#937BFF"/>
<path fill-rule="evenodd" clip-rule="evenodd" d="M8.5 367.963C9.32864 367.963 10 367.29 10 366.463C10 365.634 9.32864 364.963 8.5 364.963C7.67254 364.963 7 365.634 7 366.463C7 367.29 7.67254 367.963 8.5 367.963Z" fill="#937BFF"/>
<path fill-rule="evenodd" clip-rule="evenodd" d="M29.5 367.963C30.3286 367.963 31 367.29 31 366.463C31 365.634 30.3286 364.963 29.5 364.963C28.6714 364.963 28 365.634 28 366.463C28 367.29 28.6714 367.963 29.5 367.963Z" fill="#937BFF"/>
<path fill-rule="evenodd" clip-rule="evenodd" d="M51.5 367.963C52.3286 367.963 53 367.29 53 366.463C53 365.634 52.3286 364.963 51.5 364.963C50.6714 364.963 50 365.634 50 366.463C50 367.29 50.6714 367.963 51.5 367.963Z" fill="#937BFF"/>
<path fill-rule="evenodd" clip-rule="evenodd" d="M73.4994 367.963C74.3284 367.963 75 367.29 75 366.463C75 365.634 74.3284 364.963 73.4994 364.963C72.6716 364.963 72 365.634 72 366.463C72 367.29 72.6716 367.963 73.4994 367.963Z" fill="#937BFF"/>
<path fill-rule="evenodd" clip-rule="evenodd" d="M94.5 367.963C95.3275 367.963 96 367.29 96 366.463C96 365.634 95.3275 364.963 94.5 364.963C93.6714 364.963 93 365.634 93 366.463C93 367.29 93.6714 367.963 94.5 367.963Z" fill="#937BFF"/>
<path fill-rule="evenodd" clip-rule="evenodd" d="M19.4994 389.963C20.3284 389.963 21 389.291 21 388.463C21 387.634 20.3284 386.963 19.4994 386.963C18.6716 386.963 18 387.634 18 388.463C18 389.291 18.6716 389.963 19.4994 389.963Z" fill="#937BFF"/>
<path fill-rule="evenodd" clip-rule="evenodd" d="M41.5 389.963C42.3275 389.963 43 389.291 43 388.463C43 387.634 42.3275 386.963 41.5 386.963C40.6714 386.963 40 387.634 40 388.463C40 389.291 40.6714 389.963 41.5 389.963Z" fill="#937BFF"/>
<path fill-rule="evenodd" clip-rule="evenodd" d="M62.5 389.963C63.3286 389.963 64 389.291 64 388.463C64 387.634 63.3286 386.963 62.5 386.963C61.6725 386.963 61 387.634 61 388.463C61 389.291 61.6725 389.963 62.5 389.963Z" fill="#937BFF"/>
<path fill-rule="evenodd" clip-rule="evenodd" d="M85.5 389.963C86.3286 389.963 87 389.291 87 388.463C87 387.634 86.3286 386.963 85.5 386.963C84.6714 386.963 84 387.634 84 388.463C84 389.291 84.6714 389.963 85.5 389.963Z" fill="#937BFF"/>
<path fill-rule="evenodd" clip-rule="evenodd" d="M106.5 389.963C107.329 389.963 108 389.291 108 388.463C108 387.634 107.329 386.963 106.5 386.963C105.671 386.963 105 387.634 105 388.463C105 389.291 105.671 389.963 106.5 389.963Z" fill="#937BFF"/>
<path fill-rule="evenodd" clip-rule="evenodd" d="M8.5 411.963C9.32864 411.963 10 411.292 10 410.463C10 409.634 9.32864 408.963 8.5 408.963C7.67254 408.963 7 409.634 7 410.463C7 411.292 7.67254 411.963 8.5 411.963Z" fill="#937BFF"/>
<path fill-rule="evenodd" clip-rule="evenodd" d="M29.5 411.963C30.3286 411.963 31 411.292 31 410.463C31 409.634 30.3286 408.963 29.5 408.963C28.6714 408.963 28 409.634 28 410.463C28 411.292 28.6714 411.963 29.5 411.963Z" fill="#937BFF"/>
<path fill-rule="evenodd" clip-rule="evenodd" d="M51.5 411.963C52.3286 411.963 53 411.292 53 410.463C53 409.634 52.3286 408.963 51.5 408.963C50.6714 408.963 50 409.634 50 410.463C50 411.292 50.6714 411.963 51.5 411.963Z" fill="#937BFF"/>
<path fill-rule="evenodd" clip-rule="evenodd" d="M73.4994 411.963C74.3284 411.963 75 411.292 75 410.463C75 409.634 74.3284 408.963 73.4994 408.963C72.6716 408.963 72 409.634 72 410.463C72 411.292 72.6716 411.963 73.4994 411.963Z" fill="#937BFF"/>
<path fill-rule="evenodd" clip-rule="evenodd" d="M94.5 411.963C95.3275 411.963 96 411.292 96 410.463C96 409.634 95.3275 408.963 94.5 408.963C93.6714 408.963 93 409.634 93 410.463C93 411.292 93.6714 411.963 94.5 411.963Z" fill="#937BFF"/>
<path fill-rule="evenodd" clip-rule="evenodd" d="M19.4994 432.963C20.3284 432.963 21 432.292 21 431.463C21 430.634 20.3284 429.963 19.4994 429.963C18.6716 429.963 18 430.634 18 431.463C18 432.292 18.6716 432.963 19.4994 432.963Z" fill="#937BFF"/>
<path fill-rule="evenodd" clip-rule="evenodd" d="M41.5 432.963C42.3275 432.963 43 432.292 43 431.463C43 430.634 42.3275 429.963 41.5 429.963C40.6714 429.963 40 430.634 40 431.463C40 432.292 40.6714 432.963 41.5 432.963Z" fill="#937BFF"/>
<path fill-rule="evenodd" clip-rule="evenodd" d="M62.5 432.963C63.3286 432.963 64 432.292 64 431.463C64 430.634 63.3286 429.963 62.5 429.963C61.6725 429.963 61 430.634 61 431.463C61 432.292 61.6725 432.963 62.5 432.963Z" fill="#937BFF"/>
<path fill-rule="evenodd" clip-rule="evenodd" d="M85.5 432.963C86.3286 432.963 87 432.292 87 431.463C87 430.634 86.3286 429.963 85.5 429.963C84.6714 429.963 84 430.634 84 431.463C84 432.292 84.6714 432.963 85.5 432.963Z" fill="#937BFF"/>
<path fill-rule="evenodd" clip-rule="evenodd" d="M106.5 432.963C107.329 432.963 108 432.292 108 431.463C108 430.634 107.329 429.963 106.5 429.963C105.671 429.963 105 430.634 105 431.463C105 432.292 105.671 432.963 106.5 432.963Z" fill="#937BFF"/>
<path fill-rule="evenodd" clip-rule="evenodd" d="M8.5 455.963C9.32864 455.963 10 455.29 10 454.463C10 453.634 9.32864 452.963 8.5 452.963C7.67254 452.963 7 453.634 7 454.463C7 455.29 7.67254 455.963 8.5 455.963Z" fill="#937BFF"/>
<path fill-rule="evenodd" clip-rule="evenodd" d="M29.5 455.963C30.3286 455.963 31 455.29 31 454.463C31 453.634 30.3286 452.963 29.5 452.963C28.6714 452.963 28 453.634 28 454.463C28 455.29 28.6714 455.963 29.5 455.963Z" fill="#937BFF"/>
<path fill-rule="evenodd" clip-rule="evenodd" d="M51.5 455.963C52.3286 455.963 53 455.29 53 454.463C53 453.634 52.3286 452.963 51.5 452.963C50.6714 452.963 50 453.634 50 454.463C50 455.29 50.6714 455.963 51.5 455.963Z" fill="#937BFF"/>
<path fill-rule="evenodd" clip-rule="evenodd" d="M73.4994 455.963C74.3284 455.963 75 455.29 75 454.463C75 453.634 74.3284 452.963 73.4994 452.963C72.6716 452.963 72 453.634 72 454.463C72 455.29 72.6716 455.963 73.4994 455.963Z" fill="#937BFF"/>
<path fill-rule="evenodd" clip-rule="evenodd" d="M94.5 455.963C95.3275 455.963 96 455.29 96 454.463C96 453.634 95.3275 452.963 94.5 452.963C93.6714 452.963 93 453.634 93 454.463C93 455.29 93.6714 455.963 94.5 455.963Z" fill="#937BFF"/>
<path fill-rule="evenodd" clip-rule="evenodd" d="M19.4994 476.963C20.3284 476.963 21 476.29 21 475.463C21 474.634 20.3284 473.963 19.4994 473.963C18.6716 473.963 18 474.634 18 475.463C18 476.29 18.6716 476.963 19.4994 476.963Z" fill="#937BFF"/>
<path fill-rule="evenodd" clip-rule="evenodd" d="M41.5 476.963C42.3275 476.963 43 476.29 43 475.463C43 474.634 42.3275 473.963 41.5 473.963C40.6714 473.963 40 474.634 40 475.463C40 476.29 40.6714 476.963 41.5 476.963Z" fill="#937BFF"/>
<path fill-rule="evenodd" clip-rule="evenodd" d="M62.5 476.963C63.3286 476.963 64 476.29 64 475.463C64 474.634 63.3286 473.963 62.5 473.963C61.6725 473.963 61 474.634 61 475.463C61 476.29 61.6725 476.963 62.5 476.963Z" fill="#937BFF"/>
<path fill-rule="evenodd" clip-rule="evenodd" d="M85.5 476.963C86.3286 476.963 87 476.29 87 475.463C87 474.634 86.3286 473.963 85.5 473.963C84.6714 473.963 84 474.634 84 475.463C84 476.29 84.6714 476.963 85.5 476.963Z" fill="#937BFF"/>
<path fill-rule="evenodd" clip-rule="evenodd" d="M106.5 476.963C107.329 476.963 108 476.29 108 475.463C108 474.634 107.329 473.963 106.5 473.963C105.671 473.963 105 474.634 105 475.463C105 476.29 105.671 476.963 106.5 476.963Z" fill="#937BFF"/>
<path fill-rule="evenodd" clip-rule="evenodd" d="M8.5 499.963C9.32864 499.963 10 499.29 10 498.463C10 497.634 9.32864 496.963 8.5 496.963C7.67254 496.963 7 497.634 7 498.463C7 499.29 7.67254 499.963 8.5 499.963Z" fill="#937BFF"/>
<path fill-rule="evenodd" clip-rule="evenodd" d="M29.5 499.963C30.3286 499.963 31 499.29 31 498.463C31 497.634 30.3286 496.963 29.5 496.963C28.6714 496.963 28 497.634 28 498.463C28 499.29 28.6714 499.963 29.5 499.963Z" fill="#937BFF"/>
<path fill-rule="evenodd" clip-rule="evenodd" d="M51.5 499.963C52.3286 499.963 53 499.29 53 498.463C53 497.634 52.3286 496.963 51.5 496.963C50.6714 496.963 50 497.634 50 498.463C50 499.29 50.6714 499.963 51.5 499.963Z" fill="#937BFF"/>
<path fill-rule="evenodd" clip-rule="evenodd" d="M73.4994 499.963C74.3284 499.963 75 499.29 75 498.463C75 497.634 74.3284 496.963 73.4994 496.963C72.6716 496.963 72 497.634 72 498.463C72 499.29 72.6716 499.963 73.4994 499.963Z" fill="#937BFF"/>
<path fill-rule="evenodd" clip-rule="evenodd" d="M94.5 499.963C95.3275 499.963 96 499.29 96 498.463C96 497.634 95.3275 496.963 94.5 496.963C93.6714 496.963 93 497.634 93 498.463C93 499.29 93.6714 499.963 94.5 499.963Z" fill="#937BFF"/>
<path fill-rule="evenodd" clip-rule="evenodd" d="M19.4994 520.963C20.3284 520.963 21 520.292 21 519.463C21 518.634 20.3284 517.963 19.4994 517.963C18.6716 517.963 18 518.634 18 519.463C18 520.292 18.6716 520.963 19.4994 520.963Z" fill="#937BFF"/>
<path fill-rule="evenodd" clip-rule="evenodd" d="M41.5 520.963C42.3275 520.963 43 520.292 43 519.463C43 518.634 42.3275 517.963 41.5 517.963C40.6714 517.963 40 518.634 40 519.463C40 520.292 40.6714 520.963 41.5 520.963Z" fill="#937BFF"/>
<path fill-rule="evenodd" clip-rule="evenodd" d="M62.5 520.963C63.3286 520.963 64 520.292 64 519.463C64 518.634 63.3286 517.963 62.5 517.963C61.6725 517.963 61 518.634 61 519.463C61 520.292 61.6725 520.963 62.5 520.963Z" fill="#937BFF"/>
<path fill-rule="evenodd" clip-rule="evenodd" d="M85.5 520.963C86.3286 520.963 87 520.292 87 519.463C87 518.634 86.3286 517.963 85.5 517.963C84.6714 517.963 84 518.634 84 519.463C84 520.292 84.6714 520.963 85.5 520.963Z" fill="#937BFF"/>
<path fill-rule="evenodd" clip-rule="evenodd" d="M106.5 520.963C107.329 520.963 108 520.292 108 519.463C108 518.634 107.329 517.963 106.5 517.963C105.671 517.963 105 518.634 105 519.463C105 520.292 105.671 520.963 106.5 520.963Z" fill="#937BFF"/>
<path fill-rule="evenodd" clip-rule="evenodd" d="M8.5 542.963C9.32864 542.963 10 542.292 10 541.463C10 540.634 9.32864 539.963 8.5 539.963C7.67254 539.963 7 540.634 7 541.463C7 542.292 7.67254 542.963 8.5 542.963Z" fill="#937BFF"/>
<path fill-rule="evenodd" clip-rule="evenodd" d="M29.5 542.963C30.3286 542.963 31 542.292 31 541.463C31 540.634 30.3286 539.963 29.5 539.963C28.6714 539.963 28 540.634 28 541.463C28 542.292 28.6714 542.963 29.5 542.963Z" fill="#937BFF"/>
<path fill-rule="evenodd" clip-rule="evenodd" d="M51.5 542.963C52.3286 542.963 53 542.292 53 541.463C53 540.634 52.3286 539.963 51.5 539.963C50.6714 539.963 50 540.634 50 541.463C50 542.292 50.6714 542.963 51.5 542.963Z" fill="#937BFF"/>
<path fill-rule="evenodd" clip-rule="evenodd" d="M73.4994 542.963C74.3284 542.963 75 542.292 75 541.463C75 540.634 74.3284 539.963 73.4994 539.963C72.6716 539.963 72 540.634 72 541.463C72 542.292 72.6716 542.963 73.4994 542.963Z" fill="#937BFF"/>
<path fill-rule="evenodd" clip-rule="evenodd" d="M94.5 542.963C95.3275 542.963 96 542.292 96 541.463C96 540.634 95.3275 539.963 94.5 539.963C93.6714 539.963 93 540.634 93 541.463C93 542.292 93.6714 542.963 94.5 542.963Z" fill="#937BFF"/>
<path fill-rule="evenodd" clip-rule="evenodd" d="M19.4994 564.963C20.3284 564.963 21 564.29 21 563.463C21 562.634 20.3284 561.963 19.4994 561.963C18.6716 561.963 18 562.634 18 563.463C18 564.29 18.6716 564.963 19.4994 564.963Z" fill="#937BFF"/>
<path fill-rule="evenodd" clip-rule="evenodd" d="M41.5 564.963C42.3275 564.963 43 564.29 43 563.463C43 562.634 42.3275 561.963 41.5 561.963C40.6714 561.963 40 562.634 40 563.463C40 564.29 40.6714 564.963 41.5 564.963Z" fill="#937BFF"/>
<path fill-rule="evenodd" clip-rule="evenodd" d="M62.5 564.963C63.3286 564.963 64 564.29 64 563.463C64 562.634 63.3286 561.963 62.5 561.963C61.6725 561.963 61 562.634 61 563.463C61 564.29 61.6725 564.963 62.5 564.963Z" fill="#937BFF"/>
<path fill-rule="evenodd" clip-rule="evenodd" d="M85.5 564.963C86.3286 564.963 87 564.29 87 563.463C87 562.634 86.3286 561.963 85.5 561.963C84.6714 561.963 84 562.634 84 563.463C84 564.29 84.6714 564.963 85.5 564.963Z" fill="#937BFF"/>
<path fill-rule="evenodd" clip-rule="evenodd" d="M106.5 564.963C107.329 564.963 108 564.29 108 563.463C108 562.634 107.329 561.963 106.5 561.963C105.671 561.963 105 562.634 105 563.463C105 564.29 105.671 564.963 106.5 564.963Z" fill="#937BFF"/>
<path fill-rule="evenodd" clip-rule="evenodd" d="M8.5 586.963C9.32864 586.963 10 586.29 10 585.463C10 584.634 9.32864 583.963 8.5 583.963C7.67254 583.963 7 584.634 7 585.463C7 586.29 7.67254 586.963 8.5 586.963Z" fill="#937BFF"/>
<path fill-rule="evenodd" clip-rule="evenodd" d="M29.5 586.963C30.3286 586.963 31 586.29 31 585.463C31 584.634 30.3286 583.963 29.5 583.963C28.6714 583.963 28 584.634 28 585.463C28 586.29 28.6714 586.963 29.5 586.963Z" fill="#937BFF"/>
<path fill-rule="evenodd" clip-rule="evenodd" d="M51.5 586.963C52.3286 586.963 53 586.29 53 585.463C53 584.634 52.3286 583.963 51.5 583.963C50.6714 583.963 50 584.634 50 585.463C50 586.29 50.6714 586.963 51.5 586.963Z" fill="#937BFF"/>
<path fill-rule="evenodd" clip-rule="evenodd" d="M73.4994 586.963C74.3284 586.963 75 586.29 75 585.463C75 584.634 74.3284 583.963 73.4994 583.963C72.6716 583.963 72 584.634 72 585.463C72 586.29 72.6716 586.963 73.4994 586.963Z" fill="#937BFF"/>
<path fill-rule="evenodd" clip-rule="evenodd" d="M94.5 586.963C95.3275 586.963 96 586.29 96 585.463C96 584.634 95.3275 583.963 94.5 583.963C93.6714 583.963 93 584.634 93 585.463C93 586.29 93.6714 586.963 94.5 586.963Z" fill="#937BFF"/>
<path fill-rule="evenodd" clip-rule="evenodd" d="M19.4994 607.963C20.3284 607.963 21 607.29 21 606.463C21 605.634 20.3284 604.963 19.4994 604.963C18.6716 604.963 18 605.634 18 606.463C18 607.29 18.6716 607.963 19.4994 607.963Z" fill="#937BFF"/>
<path fill-rule="evenodd" clip-rule="evenodd" d="M41.5 607.963C42.3275 607.963 43 607.29 43 606.463C43 605.634 42.3275 604.963 41.5 604.963C40.6714 604.963 40 605.634 40 606.463C40 607.29 40.6714 607.963 41.5 607.963Z" fill="#937BFF"/>
<path fill-rule="evenodd" clip-rule="evenodd" d="M62.5 607.963C63.3286 607.963 64 607.29 64 606.463C64 605.634 63.3286 604.963 62.5 604.963C61.6725 604.963 61 605.634 61 606.463C61 607.29 61.6725 607.963 62.5 607.963Z" fill="#937BFF"/>
<path fill-rule="evenodd" clip-rule="evenodd" d="M85.5 607.963C86.3286 607.963 87 607.29 87 606.463C87 605.634 86.3286 604.963 85.5 604.963C84.6714 604.963 84 605.634 84 606.463C84 607.29 84.6714 607.963 85.5 607.963Z" fill="#937BFF"/>
<path fill-rule="evenodd" clip-rule="evenodd" d="M106.5 607.963C107.329 607.963 108 607.29 108 606.463C108 605.634 107.329 604.963 106.5 604.963C105.671 604.963 105 605.634 105 606.463C105 607.29 105.671 607.963 106.5 607.963Z" fill="#937BFF"/>
<path fill-rule="evenodd" clip-rule="evenodd" d="M8.5 629.963C9.32864 629.963 10 629.292 10 628.463C10 627.634 9.32864 626.963 8.5 626.963C7.67254 626.963 7 627.634 7 628.463C7 629.292 7.67254 629.963 8.5 629.963Z" fill="#937BFF"/>
<path fill-rule="evenodd" clip-rule="evenodd" d="M29.5 629.963C30.3286 629.963 31 629.292 31 628.463C31 627.634 30.3286 626.963 29.5 626.963C28.6714 626.963 28 627.634 28 628.463C28 629.292 28.6714 629.963 29.5 629.963Z" fill="#937BFF"/>
<path fill-rule="evenodd" clip-rule="evenodd" d="M51.5 629.963C52.3286 629.963 53 629.292 53 628.463C53 627.634 52.3286 626.963 51.5 626.963C50.6714 626.963 50 627.634 50 628.463C50 629.292 50.6714 629.963 51.5 629.963Z" fill="#937BFF"/>
<path fill-rule="evenodd" clip-rule="evenodd" d="M73.4994 629.963C74.3284 629.963 75 629.292 75 628.463C75 627.634 74.3284 626.963 73.4994 626.963C72.6716 626.963 72 627.634 72 628.463C72 629.292 72.6716 629.963 73.4994 629.963Z" fill="#937BFF"/>
<path fill-rule="evenodd" clip-rule="evenodd" d="M94.5 629.963C95.3275 629.963 96 629.292 96 628.463C96 627.634 95.3275 626.963 94.5 626.963C93.6714 626.963 93 627.634 93 628.463C93 629.292 93.6714 629.963 94.5 629.963Z" fill="#937BFF"/>
<path fill-rule="evenodd" clip-rule="evenodd" d="M19.4994 651.963C20.3284 651.963 21 651.292 21 650.463C21 649.634 20.3284 648.963 19.4994 648.963C18.6716 648.963 18 649.634 18 650.463C18 651.292 18.6716 651.963 19.4994 651.963Z" fill="#937BFF"/>
<path fill-rule="evenodd" clip-rule="evenodd" d="M41.5 651.963C42.3275 651.963 43 651.292 43 650.463C43 649.634 42.3275 648.963 41.5 648.963C40.6714 648.963 40 649.634 40 650.463C40 651.292 40.6714 651.963 41.5 651.963Z" fill="#937BFF"/>
<path fill-rule="evenodd" clip-rule="evenodd" d="M62.5 651.963C63.3286 651.963 64 651.292 64 650.463C64 649.634 63.3286 648.963 62.5 648.963C61.6725 648.963 61 649.634 61 650.463C61 651.292 61.6725 651.963 62.5 651.963Z" fill="#937BFF"/>
<path fill-rule="evenodd" clip-rule="evenodd" d="M85.5 651.963C86.3286 651.963 87 651.292 87 650.463C87 649.634 86.3286 648.963 85.5 648.963C84.6714 648.963 84 649.634 84 650.463C84 651.292 84.6714 651.963 85.5 651.963Z" fill="#937BFF"/>
<path fill-rule="evenodd" clip-rule="evenodd" d="M106.5 651.963C107.329 651.963 108 651.292 108 650.463C108 649.634 107.329 648.963 106.5 648.963C105.671 648.963 105 649.634 105 650.463C105 651.292 105.671 651.963 106.5 651.963Z" fill="#937BFF"/>
<path fill-rule="evenodd" clip-rule="evenodd" d="M8.5 668.963C9.32864 668.963 10 668.29 10 667.463C10 666.634 9.32864 665.963 8.5 665.963C7.67254 665.963 7 666.634 7 667.463C7 668.29 7.67254 668.963 8.5 668.963Z" fill="#937BFF"/>
<path fill-rule="evenodd" clip-rule="evenodd" d="M29.5 668.963C30.3286 668.963 31 668.29 31 667.463C31 666.634 30.3286 665.963 29.5 665.963C28.6714 665.963 28 666.634 28 667.463C28 668.29 28.6714 668.963 29.5 668.963Z" fill="#937BFF"/>
<path fill-rule="evenodd" clip-rule="evenodd" d="M51.5 668.963C52.3286 668.963 53 668.29 53 667.463C53 666.634 52.3286 665.963 51.5 665.963C50.6714 665.963 50 666.634 50 667.463C50 668.29 50.6714 668.963 51.5 668.963Z" fill="#937BFF"/>
<path fill-rule="evenodd" clip-rule="evenodd" d="M73.4994 668.963C74.3284 668.963 75 668.29 75 667.463C75 666.634 74.3284 665.963 73.4994 665.963C72.6716 665.963 72 666.634 72 667.463C72 668.29 72.6716 668.963 73.4994 668.963Z" fill="#937BFF"/>
<path fill-rule="evenodd" clip-rule="evenodd" d="M94.5 668.963C95.3275 668.963 96 668.29 96 667.463C96 666.634 95.3275 665.963 94.5 665.963C93.6714 665.963 93 666.634 93 667.463C93 668.29 93.6714 668.963 94.5 668.963Z" fill="#937BFF"/>
<path fill-rule="evenodd" clip-rule="evenodd" d="M19.4994 689.963C20.3284 689.963 21 689.292 21 688.463C21 687.634 20.3284 686.963 19.4994 686.963C18.6716 686.963 18 687.634 18 688.463C18 689.292 18.6716 689.963 19.4994 689.963Z" fill="#937BFF"/>
<path fill-rule="evenodd" clip-rule="evenodd" d="M41.5 689.963C42.3275 689.963 43 689.292 43 688.463C43 687.634 42.3275 686.963 41.5 686.963C40.6714 686.963 40 687.634 40 688.463C40 689.292 40.6714 689.963 41.5 689.963Z" fill="#937BFF"/>
<path fill-rule="evenodd" clip-rule="evenodd" d="M62.5 689.963C63.3286 689.963 64 689.292 64 688.463C64 687.634 63.3286 686.963 62.5 686.963C61.6725 686.963 61 687.634 61 688.463C61 689.292 61.6725 689.963 62.5 689.963Z" fill="#937BFF"/>
<path fill-rule="evenodd" clip-rule="evenodd" d="M85.5 689.963C86.3286 689.963 87 689.292 87 688.463C87 687.634 86.3286 686.963 85.5 686.963C84.6714 686.963 84 687.634 84 688.463C84 689.292 84.6714 689.963 85.5 689.963Z" fill="#937BFF"/>
<path fill-rule="evenodd" clip-rule="evenodd" d="M106.5 689.963C107.329 689.963 108 689.292 108 688.463C108 687.634 107.329 686.963 106.5 686.963C105.671 686.963 105 687.634 105 688.463C105 689.292 105.671 689.963 106.5 689.963Z" fill="#937BFF"/>
<path fill-rule="evenodd" clip-rule="evenodd" d="M8.5 712.963C9.32864 712.963 10 712.291 10 711.463C10 710.634 9.32864 709.963 8.5 709.963C7.67254 709.963 7 710.634 7 711.463C7 712.291 7.67254 712.963 8.5 712.963Z" fill="#937BFF"/>
<path fill-rule="evenodd" clip-rule="evenodd" d="M29.5 712.963C30.3286 712.963 31 712.291 31 711.463C31 710.634 30.3286 709.963 29.5 709.963C28.6714 709.963 28 710.634 28 711.463C28 712.291 28.6714 712.963 29.5 712.963Z" fill="#937BFF"/>
<path fill-rule="evenodd" clip-rule="evenodd" d="M51.5 712.963C52.3286 712.963 53 712.291 53 711.463C53 710.634 52.3286 709.963 51.5 709.963C50.6714 709.963 50 710.634 50 711.463C50 712.291 50.6714 712.963 51.5 712.963Z" fill="#937BFF"/>
<path fill-rule="evenodd" clip-rule="evenodd" d="M73.4994 712.963C74.3284 712.963 75 712.291 75 711.463C75 710.634 74.3284 709.963 73.4994 709.963C72.6716 709.963 72 710.634 72 711.463C72 712.291 72.6716 712.963 73.4994 712.963Z" fill="#937BFF"/>
<path fill-rule="evenodd" clip-rule="evenodd" d="M94.5 712.963C95.3275 712.963 96 712.291 96 711.463C96 710.634 95.3275 709.963 94.5 709.963C93.6714 709.963 93 710.634 93 711.463C93 712.291 93.6714 712.963 94.5 712.963Z" fill="#937BFF"/>
<path fill-rule="evenodd" clip-rule="evenodd" d="M19.4994 733.963C20.3284 733.963 21 733.29 21 732.463C21 731.634 20.3284 730.963 19.4994 730.963C18.6716 730.963 18 731.634 18 732.463C18 733.29 18.6716 733.963 19.4994 733.963Z" fill="#937BFF"/>
<path fill-rule="evenodd" clip-rule="evenodd" d="M41.5 733.963C42.3275 733.963 43 733.29 43 732.463C43 731.634 42.3275 730.963 41.5 730.963C40.6714 730.963 40 731.634 40 732.463C40 733.29 40.6714 733.963 41.5 733.963Z" fill="#937BFF"/>
<path fill-rule="evenodd" clip-rule="evenodd" d="M62.5 733.963C63.3286 733.963 64 733.29 64 732.463C64 731.634 63.3286 730.963 62.5 730.963C61.6725 730.963 61 731.634 61 732.463C61 733.29 61.6725 733.963 62.5 733.963Z" fill="#937BFF"/>
<path fill-rule="evenodd" clip-rule="evenodd" d="M85.5 733.963C86.3286 733.963 87 733.29 87 732.463C87 731.634 86.3286 730.963 85.5 730.963C84.6714 730.963 84 731.634 84 732.463C84 733.29 84.6714 733.963 85.5 733.963Z" fill="#937BFF"/>
<path fill-rule="evenodd" clip-rule="evenodd" d="M106.5 733.963C107.329 733.963 108 733.29 108 732.463C108 731.634 107.329 730.963 106.5 730.963C105.671 730.963 105 731.634 105 732.463C105 733.29 105.671 733.963 106.5 733.963Z" fill="#937BFF"/>
<path fill-rule="evenodd" clip-rule="evenodd" d="M8.5 755.963C9.32864 755.963 10 755.29 10 754.463C10 753.634 9.32864 752.963 8.5 752.963C7.67254 752.963 7 753.634 7 754.463C7 755.29 7.67254 755.963 8.5 755.963Z" fill="#937BFF"/>
<path fill-rule="evenodd" clip-rule="evenodd" d="M29.5 755.963C30.3286 755.963 31 755.29 31 754.463C31 753.634 30.3286 752.963 29.5 752.963C28.6714 752.963 28 753.634 28 754.463C28 755.29 28.6714 755.963 29.5 755.963Z" fill="#937BFF"/>
<path fill-rule="evenodd" clip-rule="evenodd" d="M51.5 755.963C52.3286 755.963 53 755.29 53 754.463C53 753.634 52.3286 752.963 51.5 752.963C50.6714 752.963 50 753.634 50 754.463C50 755.29 50.6714 755.963 51.5 755.963Z" fill="#937BFF"/>
<path fill-rule="evenodd" clip-rule="evenodd" d="M73.4994 755.963C74.3284 755.963 75 755.29 75 754.463C75 753.634 74.3284 752.963 73.4994 752.963C72.6716 752.963 72 753.634 72 754.463C72 755.29 72.6716 755.963 73.4994 755.963Z" fill="#937BFF"/>
<path fill-rule="evenodd" clip-rule="evenodd" d="M94.5 755.963C95.3275 755.963 96 755.29 96 754.463C96 753.634 95.3275 752.963 94.5 752.963C93.6714 752.963 93 753.634 93 754.463C93 755.29 93.6714 755.963 94.5 755.963Z" fill="#937BFF"/>
<path fill-rule="evenodd" clip-rule="evenodd" d="M19.4994 777.963C20.3284 777.963 21 777.291 21 776.463C21 775.634 20.3284 774.963 19.4994 774.963C18.6716 774.963 18 775.634 18 776.463C18 777.291 18.6716 777.963 19.4994 777.963Z" fill="#937BFF"/>
<path fill-rule="evenodd" clip-rule="evenodd" d="M41.5 777.963C42.3275 777.963 43 777.291 43 776.463C43 775.634 42.3275 774.963 41.5 774.963C40.6714 774.963 40 775.634 40 776.463C40 777.291 40.6714 777.963 41.5 777.963Z" fill="#937BFF"/>
<path fill-rule="evenodd" clip-rule="evenodd" d="M62.5 777.963C63.3286 777.963 64 777.291 64 776.463C64 775.634 63.3286 774.963 62.5 774.963C61.6725 774.963 61 775.634 61 776.463C61 777.291 61.6725 777.963 62.5 777.963Z" fill="#937BFF"/>
<path fill-rule="evenodd" clip-rule="evenodd" d="M85.5 777.963C86.3286 777.963 87 777.291 87 776.463C87 775.634 86.3286 774.963 85.5 774.963C84.6714 774.963 84 775.634 84 776.463C84 777.291 84.6714 777.963 85.5 777.963Z" fill="#937BFF"/>
<path fill-rule="evenodd" clip-rule="evenodd" d="M106.5 777.963C107.329 777.963 108 777.291 108 776.463C108 775.634 107.329 774.963 106.5 774.963C105.671 774.963 105 775.634 105 776.463C105 777.291 105.671 777.963 106.5 777.963Z" fill="#937BFF"/>
<path fill-rule="evenodd" clip-rule="evenodd" d="M8.5 799.963C9.32864 799.963 10 799.292 10 798.463C10 797.634 9.32864 796.963 8.5 796.963C7.67254 796.963 7 797.634 7 798.463C7 799.292 7.67254 799.963 8.5 799.963Z" fill="#937BFF"/>
<path fill-rule="evenodd" clip-rule="evenodd" d="M29.5 799.963C30.3286 799.963 31 799.292 31 798.463C31 797.634 30.3286 796.963 29.5 796.963C28.6714 796.963 28 797.634 28 798.463C28 799.292 28.6714 799.963 29.5 799.963Z" fill="#937BFF"/>
<path fill-rule="evenodd" clip-rule="evenodd" d="M51.5 799.963C52.3286 799.963 53 799.292 53 798.463C53 797.634 52.3286 796.963 51.5 796.963C50.6714 796.963 50 797.634 50 798.463C50 799.292 50.6714 799.963 51.5 799.963Z" fill="#937BFF"/>
<path fill-rule="evenodd" clip-rule="evenodd" d="M73.4994 799.963C74.3284 799.963 75 799.292 75 798.463C75 797.634 74.3284 796.963 73.4994 796.963C72.6716 796.963 72 797.634 72 798.463C72 799.292 72.6716 799.963 73.4994 799.963Z" fill="#937BFF"/>
<path fill-rule="evenodd" clip-rule="evenodd" d="M94.5 799.963C95.3275 799.963 96 799.292 96 798.463C96 797.634 95.3275 796.963 94.5 796.963C93.6714 796.963 93 797.634 93 798.463C93 799.292 93.6714 799.963 94.5 799.963Z" fill="#937BFF"/>
<path fill-rule="evenodd" clip-rule="evenodd" d="M19.4994 820.963C20.3284 820.963 21 820.292 21 819.463C21 818.634 20.3284 817.963 19.4994 817.963C18.6716 817.963 18 818.634 18 819.463C18 820.292 18.6716 820.963 19.4994 820.963Z" fill="#937BFF"/>
<path fill-rule="evenodd" clip-rule="evenodd" d="M41.5 820.963C42.3275 820.963 43 820.292 43 819.463C43 818.634 42.3275 817.963 41.5 817.963C40.6714 817.963 40 818.634 40 819.463C40 820.292 40.6714 820.963 41.5 820.963Z" fill="#937BFF"/>
<path fill-rule="evenodd" clip-rule="evenodd" d="M62.5 820.963C63.3286 820.963 64 820.292 64 819.463C64 818.634 63.3286 817.963 62.5 817.963C61.6725 817.963 61 818.634 61 819.463C61 820.292 61.6725 820.963 62.5 820.963Z" fill="#937BFF"/>
<path fill-rule="evenodd" clip-rule="evenodd" d="M85.5 820.963C86.3286 820.963 87 820.292 87 819.463C87 818.634 86.3286 817.963 85.5 817.963C84.6714 817.963 84 818.634 84 819.463C84 820.292 84.6714 820.963 85.5 820.963Z" fill="#937BFF"/>
<path fill-rule="evenodd" clip-rule="evenodd" d="M106.5 820.963C107.329 820.963 108 820.292 108 819.463C108 818.634 107.329 817.963 106.5 817.963C105.671 817.963 105 818.634 105 819.463C105 820.292 105.671 820.963 106.5 820.963Z" fill="#937BFF"/>
</g>
</svg>
